<?xml version="1.0" standalone="no"?>
<!DOCTYPE svg PUBLIC "-//W3C//DTD SVG 20010904//EN"
 "http://www.w3.org/TR/2001/REC-SVG-20010904/DTD/svg10.dtd">
<svg version="1.0" xmlns="http://www.w3.org/2000/svg"
 width="454.000000pt" height="454.000000pt" viewBox="0 0 454.000000 454.000000"
 preserveAspectRatio="xMidYMid meet">
<metadata>
Created by potrace 1.11, written by Peter Selinger 2001-2013
</metadata>
<g transform="translate(0.000000,454.000000) scale(0.100000,-0.100000)"
fill="#000000" stroke="none">
<path d="M2110 4244 c-247 -24 -560 -119 -780 -236 -585 -311 -976 -857 -1087
-1518 -24 -145 -24 -495 1 -630 87 -481 278 -847 607 -1165 316 -306 689 -492
1144 -571 142 -25 479 -25 630 0 614 99 1122 429 1460 949 63 97 158 292 200
407 135 379 154 841 49 1230 -211 783 -847 1361 -1664 1511 -103 19 -451 33
-560 23z m360 -134 c613 -55 1145 -373 1483 -885 112 -170 216 -412 262 -611
49 -213 62 -508 30 -714 -125 -827 -760 -1481 -1583 -1631 -142 -26 -406 -35
-553 -20 -796 85 -1453 634 -1673 1399 -316 1097 394 2229 1529 2437 180 32
333 40 505 25z"/>
<path d="M1073 3566 c-89 -13 -118 -33 -127 -91 -33 -195 -32 -241 11 -275 34
-26 76 -25 109 3 23 20 28 33 34 105 4 45 9 84 11 86 2 2 63 7 134 11 l130 7
0 -448 c0 -247 2 -465 5 -484 l5 -34 -83 -13 c-105 -16 -122 -25 -122 -64 0
-52 44 -63 240 -61 91 0 185 5 210 11 25 6 61 11 81 11 65 0 79 54 26 94 -21
16 -48 22 -105 26 l-77 5 4 195 c3 196 -12 535 -30 664 -5 38 -8 70 -7 71 2 1
66 5 144 8 l141 6 17 -82 c21 -95 28 -107 66 -107 38 0 46 13 63 105 27 139
27 145 13 178 -17 41 -36 57 -83 68 -63 15 -716 19 -810 5z"/>
<path d="M2883 3205 c-46 -21 -53 -28 -53 -53 0 -40 17 -52 72 -52 l48 0 0
-219 c0 -120 4 -240 9 -267 27 -139 89 -233 186 -279 98 -46 234 -31 309 34
16 13 20 14 24 2 3 -8 16 -25 30 -38 29 -27 103 -31 162 -10 75 26 78 41 15
88 -61 46 -65 73 -62 419 1 248 -1 290 -15 323 -23 51 -82 78 -152 70 -69 -8
-86 -18 -86 -52 0 -33 13 -46 53 -56 16 -4 31 -14 34 -22 3 -9 0 -130 -7 -271
l-14 -255 -59 -43 c-77 -57 -128 -60 -182 -13 -55 49 -72 119 -80 334 -10 302
-40 385 -137 385 -24 0 -66 -11 -95 -25z"/>
<path d="M2295 3211 c-22 -4 -63 -18 -90 -31 -136 -68 -156 -315 -33 -425 42
-38 111 -74 234 -119 74 -28 94 -49 94 -101 0 -51 -117 -104 -231 -105 -37 0
-52 5 -73 26 -14 15 -26 37 -26 50 0 27 -28 45 -57 38 -28 -8 -63 -82 -63
-134 0 -36 6 -48 37 -78 62 -58 114 -76 218 -75 160 3 290 61 350 158 26 43
30 57 29 121 0 60 -5 83 -32 137 -18 36 -44 72 -58 82 -14 9 -73 35 -131 56
-185 70 -203 84 -203 164 0 60 5 68 49 83 36 13 159 16 210 6 29 -6 31 -9 31
-53 0 -52 7 -66 36 -75 44 -13 72 44 74 147 0 77 -82 121 -245 131 -44 2 -98
1 -120 -3z"/>
<path d="M1615 1826 c-59 -17 -99 -57 -89 -89 10 -35 22 -41 72 -39 l48 2 -2
-488 -3 -487 -53 -5 c-65 -6 -78 -14 -78 -45 0 -47 32 -56 212 -58 169 -2 198
4 198 39 0 18 -58 54 -88 54 -22 0 -23 2 -20 96 l3 96 37 4 c20 1 48 10 62 19
24 16 24 16 66 -52 50 -83 128 -194 160 -228 63 -67 151 -78 211 -28 42 36 35
93 -12 93 -37 0 -97 45 -149 112 -118 152 -159 212 -151 222 4 6 35 45 68 86
33 41 74 98 92 127 l32 51 75 7 c89 9 118 28 95 64 -13 21 -381 68 -419 53
-19 -7 -34 -40 -27 -61 6 -20 64 -49 107 -53 26 -3 24 -6 -62 -108 -109 -127
-178 -200 -190 -200 -6 0 -10 160 -12 390 -3 383 -3 390 -24 411 -28 27 -93
33 -159 15z"/>
<path d="M2705 1440 c-11 -4 -42 -16 -68 -25 -55 -19 -108 -68 -136 -123 -10
-20 -31 -84 -47 -142 -38 -143 -41 -301 -6 -372 13 -26 38 -59 55 -73 98 -79
123 -95 184 -116 55 -18 80 -21 149 -16 100 7 128 19 224 94 73 57 97 94 68
106 -15 5 -122 -20 -201 -47 -105 -36 -223 -10 -294 65 -42 45 -53 77 -53 154
l0 64 38 -16 c30 -14 73 -17 217 -17 173 -1 182 0 230 24 60 30 84 68 92 145
4 40 1 68 -12 102 -19 50 -93 136 -135 158 -72 37 -251 58 -305 35z m167 -146
c101 -26 171 -99 149 -155 -9 -26 -13 -27 -113 -34 -113 -8 -293 -4 -303 7 -7
7 27 77 59 121 29 40 85 76 120 76 15 1 55 -6 88 -15z"/>
</g>
</svg>
